<svg width="283" height="78" viewBox="0 0 283 78" fill="none" xmlns="http://www.w3.org/2000/svg">
<g opacity="0.5" clip-path="url(#clip0_205_1183)">
<path d="M188.292 0V56.6365C195.123 56.9615 201.937 57.3543 208.732 57.8178V69.8258C197.955 69.091 187.168 68.5334 176.374 68.1533V0H188.292ZM282.999 0.00678261L267.48 36.799L282.995 77.7423L282.978 77.7496C278.454 77.0915 273.926 76.4654 269.394 75.8714L260.681 52.8919L251.885 73.7383C247.717 73.2674 243.543 72.8226 239.359 72.4043L254.488 36.5526L240.633 0.00734783H253.525L261.283 20.4592L269.909 0.00678261H282.999ZM135.47 67.5582V0.00621739H168.739V12.1222H147.388V27.824H163.543V39.832H147.388V67.5559L135.47 67.5582ZM90.9679 12.1228V0.00565217H127.83V12.1222H115.357V67.8866C111.379 67.9939 107.406 68.1194 103.44 68.2726V12.1228H90.9679ZM50.2247 71.7634V0.00791304H83.328V12.1233H62.1411V28.535C67.0085 28.4711 73.9293 28.3993 78.2351 28.4095V40.4187C72.8454 40.3509 66.7614 40.4944 62.1411 40.5413V58.721C69.1982 58.1523 76.2609 57.6587 83.328 57.2401V69.2493C72.2807 69.901 61.2448 70.7395 50.2247 71.7645V71.7634ZM26.8457 44.0044L26.8452 0.00565217H38.7632V72.8961C34.4066 73.3539 30.0576 73.8417 25.717 74.3566L11.9158 33.8136V76.0929C7.93556 76.6231 3.96305 77.1753 -0.00170898 77.7524V0.00678261H11.3244L26.8452 44.0044H26.8457ZM218.564 70.5499V0.00678261H230.482V71.5565C226.514 71.1948 222.543 70.8613 218.564 70.5504V70.5499Z" fill="white"/>
</g>
<defs>
<clipPath id="clip0_205_1183">
<rect width="283" height="78" fill="white"/>
</clipPath>
</defs>
</svg>
