<svg width="152" height="35" viewBox="0 0 152 35" fill="none" xmlns="http://www.w3.org/2000/svg">
<path d="M45.925 0H7.90363C7.22771 0 6.63626 0.329669 6.29829 0.906589L0.299374 11.0439C-0.0385933 11.6208 -0.0385933 12.2801 0.299374 12.857L12.8042 34.0383C13.1422 34.6152 13.7336 34.9449 14.4095 34.9449H39.3346C40.0106 34.9449 40.602 34.6152 40.94 34.0383L53.5292 12.857C53.8672 12.2801 53.8672 11.6208 53.5292 11.0439L47.5303 0.906589C47.1923 0.329669 46.6009 0 45.925 0ZM44.1506 2.30768L39.8415 9.64282L35.448 2.30768H44.1506ZM31.2234 2.30768L26.8298 9.64282L22.4362 2.30768H31.2234ZM8.2416 2.30768H18.3806L13.3111 10.879H3.17209L8.2416 2.30768ZM14.7475 32.6372L3.17209 13.1867H13.3111L24.802 32.6372H14.7475ZM15.4234 11.9505L20.493 3.37911L31.9838 22.8296L26.9143 31.401L15.4234 11.9505ZM28.9421 32.6372L33.3356 25.1373L37.7292 32.6372H28.9421ZM44.9111 22.912L39.8415 31.4834L28.2662 11.9505L33.3356 3.37911L44.9111 22.912ZM46.2629 20.5218L41.1934 11.9505L46.2629 3.37911L51.3325 11.9505L46.2629 20.5218Z" fill="black"/>
<path d="M67.808 14.258L69.5823 7.99428H69.6667L71.4411 14.258H74.3983L77.1866 4.36792H74.3138L72.793 10.9613H72.7085L71.0186 4.36792H68.2304L66.625 11.0437H66.5406L64.9352 4.36792H62.147L64.8508 14.258H67.808Z" fill="black"/>
<path d="M86.8185 13.022C87.2409 12.5275 87.4944 12.033 87.5789 11.4561L84.9596 11.2912C84.8751 11.5385 84.7061 11.7857 84.5371 11.9506C84.3682 12.1154 84.1147 12.2803 83.8612 12.3627C83.6922 12.3627 83.3543 12.3627 83.1008 12.3627C82.5938 12.3627 82.2558 12.2802 81.9179 12.033C81.5799 11.8681 81.3265 11.5385 81.1574 11.2088C80.9885 10.8791 80.904 10.467 80.904 9.97255H87.8324V9.23084C87.8324 8.40665 87.7478 7.66489 87.4944 7.00556C87.2409 6.42863 86.903 5.85171 86.4805 5.43962C86.058 5.02754 85.5511 4.69787 84.9596 4.53304C84.3682 4.3682 83.7768 4.20337 83.1008 4.20337C82.0869 4.20337 81.2419 4.3682 80.4815 4.86271C79.7211 5.27479 79.2141 5.85171 78.7916 6.67589C78.3692 7.41764 78.2002 8.32423 78.2002 9.39564C78.2002 10.467 78.3692 11.3736 78.7916 12.1154C79.2141 12.8572 79.8055 13.4341 80.4815 13.8462C81.2419 14.2583 82.1713 14.5056 83.1852 14.5056C84.0302 14.5056 84.7907 14.4231 85.3821 14.1759C85.889 13.8462 86.396 13.5165 86.8185 13.022ZM81.8334 6.59347C82.1713 6.42863 82.5093 6.26379 82.9318 6.26379C83.3543 6.26379 83.6922 6.34621 84.0302 6.51105C84.3682 6.67589 84.6216 6.92314 84.7907 7.25281C84.9596 7.58248 85.0441 7.91214 85.0441 8.32423H80.8195C80.8195 7.99456 80.904 7.66489 81.073 7.33522C81.2419 7.00556 81.4954 6.75831 81.8334 6.59347Z" fill="black"/>
<path d="M98.9856 14.1753V0.988525H96.197V5.93356H96.1132C96.0284 5.68631 95.7751 5.43906 95.6056 5.10939C95.3523 4.77971 95.0989 4.61488 94.6761 4.45005C94.2542 4.28521 93.8316 4.12038 93.2402 4.12038C92.4797 4.12038 91.8038 4.28521 91.2124 4.6973C90.6209 5.10939 90.114 5.68631 89.6915 6.42806C89.2691 7.16982 89.1001 8.15882 89.1001 9.23028C89.1001 10.3841 89.269 11.2907 89.607 12.0324C89.945 12.7742 90.4519 13.3511 91.1279 13.7632C91.7193 14.1753 92.4797 14.3401 93.2402 14.3401C93.7471 14.3401 94.2542 14.2577 94.5923 14.0104C94.9304 13.8456 95.2675 13.5984 95.5218 13.3511C95.7751 13.1039 95.9437 12.8566 96.1132 12.5269H96.197V14.0929H98.9856V14.1753ZM96.0284 10.7962C95.8599 11.2083 95.6056 11.5379 95.2675 11.7852C94.9304 12.0324 94.5923 12.1973 94.0851 12.1973C93.5782 12.1973 93.2402 12.1149 92.9867 11.8676C92.6487 11.6204 92.4797 11.2907 92.3107 10.7962C92.1418 10.3017 92.0573 9.80719 92.0573 9.23028C92.0573 8.65332 92.1418 8.15882 92.3107 7.74673C92.4797 7.33465 92.7332 7.00498 92.9867 6.75773C93.3246 6.51048 93.6626 6.34565 94.1696 6.34565C94.5923 6.34565 95.0142 6.42806 95.3523 6.67531C95.6904 6.92257 95.9437 7.25223 96.1132 7.66432C96.2818 8.0764 96.3665 8.65332 96.3665 9.23028C96.2818 9.88959 96.197 10.3841 96.0284 10.7962Z" fill="black"/>
<path d="M103.21 13.8462C103.97 14.2583 104.816 14.5056 105.914 14.5056C106.928 14.5056 107.773 14.2583 108.618 13.8462C109.378 13.4341 109.886 12.8572 110.307 12.033C110.73 11.2912 110.899 10.3846 110.899 9.39564C110.899 8.32423 110.73 7.50006 110.307 6.67589C109.886 5.93413 109.294 5.35721 108.618 4.86271C107.857 4.45062 107.012 4.20337 105.914 4.20337C104.9 4.20337 103.97 4.3682 103.21 4.86271C102.45 5.27479 101.943 5.85171 101.521 6.67589C101.098 7.41764 100.929 8.32423 100.929 9.39564C100.929 10.3846 101.098 11.2912 101.521 12.033C101.943 12.7748 102.534 13.3517 103.21 13.8462ZM104.055 7.82973C104.225 7.33522 104.478 7.00556 104.731 6.75831C105.069 6.51105 105.408 6.34622 105.914 6.34622C106.336 6.34622 106.759 6.51105 107.097 6.75831C107.435 7.00556 107.688 7.41764 107.773 7.82973C107.942 8.24181 108.027 8.81873 108.027 9.39564C108.027 9.97255 107.942 10.467 107.773 10.9615C107.604 11.456 107.35 11.7857 107.097 12.033C106.759 12.2802 106.421 12.4451 105.914 12.4451C105.408 12.4451 104.985 12.3627 104.731 12.033C104.393 11.7857 104.14 11.456 104.055 10.9615C103.887 10.5494 103.802 9.97255 103.802 9.39564C103.802 8.73631 103.887 8.24181 104.055 7.82973Z" fill="black"/>
<path d="M70.7654 22.582C70.3429 22.1699 69.8359 21.8402 69.2445 21.6754C68.6531 21.5106 68.0616 21.3457 67.3857 21.3457C66.3718 21.3457 65.5268 21.5106 64.7664 22.0051C64.006 22.4171 63.499 22.9941 63.0765 23.8182C62.6541 24.56 62.4851 25.4666 62.4851 26.538C62.4851 27.6094 62.6541 28.516 63.0765 29.2578C63.499 29.9995 64.0904 30.5764 64.7664 30.9885C65.5268 31.4006 66.4562 31.6478 67.4701 31.6478C68.3151 31.6478 69.0755 31.5654 69.667 31.3182C70.3429 31.0709 70.8498 30.7413 71.2723 30.2468C71.6948 29.7523 71.9482 29.2578 72.0327 28.6808L69.4134 28.516C69.329 28.7632 69.16 29.0105 68.991 29.1753C68.822 29.3402 68.5685 29.505 68.3151 29.5874C68.0616 29.6698 67.8081 29.6698 67.4701 29.6698C66.9632 29.6698 66.6252 29.5874 66.2873 29.3402C65.9493 29.1753 65.6959 28.8457 65.5268 28.516C65.3579 28.1863 65.2734 27.7742 65.2734 27.2797H72.2017V26.3732C72.2017 25.549 72.1172 24.8072 71.8637 24.1479C71.5257 23.571 71.1878 22.9941 70.7654 22.582ZM65.2734 25.3842C65.2734 25.0545 65.3579 24.7248 65.5268 24.3951C65.6959 24.0655 65.9493 23.8182 66.2873 23.6534C66.6252 23.4886 66.9632 23.3237 67.3857 23.3237C67.8081 23.3237 68.1461 23.4061 68.484 23.571C68.822 23.7358 69.0755 23.9831 69.2445 24.3127C69.4135 24.6424 69.4979 24.9721 69.4979 25.3842H65.2734Z" fill="black"/>
<path d="M80.6505 23.1593H80.566C80.4815 22.912 80.228 22.6648 80.0591 22.3351C79.8056 22.0054 79.5521 21.8406 79.1297 21.6758C78.7072 21.5109 78.2847 21.3461 77.6933 21.3461C76.9328 21.3461 76.2569 21.5109 75.6655 21.923C75.0741 22.3351 74.5671 22.912 74.1446 23.6538C73.7222 24.3955 73.5532 25.3846 73.5532 26.456C73.5532 27.6099 73.7222 28.5165 74.0602 29.2582C74.3981 30 74.905 30.5769 75.581 30.989C76.1724 31.4011 76.9328 31.5659 77.6933 31.5659C78.2002 31.5659 78.7072 31.4835 79.0452 31.2362C79.3831 31.0714 79.7211 30.8242 79.9745 30.5769C80.228 30.3297 80.397 30.0824 80.566 29.7527H80.6505V31.3187H83.4387V18.1318H80.6505V23.1593ZM80.4815 28.022C80.3125 28.4341 80.0591 28.7637 79.7211 29.011C79.3831 29.2582 79.0452 29.4231 78.5382 29.4231C78.0313 29.4231 77.6933 29.3407 77.4398 29.0934C77.1019 28.8462 76.9328 28.5165 76.7639 28.022C76.5949 27.5275 76.5103 27.033 76.5103 26.456C76.5103 25.8791 76.5949 25.3846 76.7639 24.9725C76.9328 24.5604 77.1863 24.2307 77.4398 23.9834C77.7778 23.7362 78.1158 23.5714 78.6227 23.5714C79.0452 23.5714 79.4676 23.6538 79.8056 23.901C80.1436 24.1483 80.397 24.478 80.566 24.8901C80.735 25.3022 80.8195 25.8791 80.8195 26.456C80.8195 27.033 80.6505 27.5275 80.4815 28.022Z" fill="black"/>
<path d="M92.3103 27.1973C92.3103 27.6094 92.2258 28.0215 92.0568 28.2687C91.8878 28.5984 91.6343 28.8456 91.3809 28.928C91.0429 29.0929 90.7895 29.1753 90.4515 29.1753C89.9445 29.1753 89.522 29.0105 89.1841 28.6808C88.8461 28.3511 88.6772 27.8566 88.6772 27.2797V21.5105H85.8889V27.7742C85.8889 28.516 86.0579 29.2577 86.3114 29.7522C86.6493 30.3291 86.9873 30.7412 87.4942 30.9885C88.0012 31.3181 88.5926 31.483 89.2686 31.483C90.029 31.483 90.6204 31.3181 91.2119 30.9885C91.7189 30.6588 92.1413 30.1643 92.3103 29.5874H92.3948V31.4006H95.0981V21.5105H92.3103V27.1973Z" fill="black"/>
<path d="M103.462 28.6812C103.294 28.9285 103.041 29.0933 102.787 29.2581C102.534 29.423 102.28 29.423 101.942 29.423C101.52 29.423 101.097 29.3405 100.759 29.0933C100.422 28.846 100.167 28.5164 99.9987 28.1043C99.8301 27.6098 99.7454 27.1153 99.7454 26.456C99.7454 25.879 99.8301 25.3021 99.9987 24.89C100.167 24.3955 100.505 24.1483 100.759 23.901C101.097 23.6538 101.435 23.5714 101.858 23.5714C102.364 23.5714 102.787 23.7362 103.125 24.0659C103.462 24.3955 103.632 24.7252 103.717 25.2197H106.42C106.336 24.4779 106.166 23.8186 105.744 23.2417C105.322 22.6648 104.815 22.2527 104.139 21.923C103.462 21.5934 102.702 21.4285 101.858 21.4285C100.843 21.4285 99.9139 21.5933 99.1539 22.0879C98.393 22.4999 97.8863 23.0769 97.4635 23.901C97.0416 24.6428 96.8721 25.5494 96.8721 26.5384C96.8721 27.5274 97.0416 28.434 97.4635 29.1757C97.8863 29.9175 98.4778 30.4944 99.1539 30.9889C99.9139 31.401 100.759 31.6482 101.858 31.6482C102.787 31.6482 103.632 31.4834 104.223 31.1537C104.9 30.8241 105.406 30.412 105.744 29.835C106.082 29.2581 106.336 28.5988 106.336 27.857H103.632C103.717 28.1867 103.632 28.434 103.462 28.6812Z" fill="black"/>
<path d="M115.545 22.2523C115.122 21.9226 114.616 21.7578 114.193 21.6753C113.686 21.5105 113.095 21.5105 112.588 21.5105C111.827 21.5105 111.067 21.5929 110.476 21.8402C109.884 22.0874 109.378 22.4171 108.955 22.8292C108.532 23.2413 108.279 23.8182 108.195 24.3951L110.814 24.5599C110.898 24.2303 111.152 23.983 111.405 23.7358C111.743 23.5709 112.081 23.4061 112.588 23.4061C113.095 23.4061 113.433 23.4885 113.686 23.7358C113.94 23.983 114.109 24.3127 114.109 24.7248C114.109 24.8896 114.024 25.1369 113.856 25.2193C113.686 25.3017 113.433 25.3841 113.095 25.4665C112.757 25.5489 112.25 25.5489 111.659 25.6314C111.152 25.6314 110.644 25.7138 110.222 25.8786C109.8 25.961 109.378 26.2083 109.04 26.3731C108.617 26.6204 108.363 26.8676 108.195 27.2797C108.025 27.6918 107.857 28.1039 107.857 28.6808C107.857 29.3401 108.025 29.8346 108.279 30.3291C108.532 30.7412 108.955 31.0709 109.461 31.3181C109.969 31.483 110.56 31.6478 111.152 31.6478C111.659 31.6478 112.081 31.5654 112.503 31.5654C112.926 31.4006 113.18 31.2357 113.518 30.9885C113.771 30.7412 114.024 30.494 114.193 30.1643H114.278V31.483H116.981V24.8072C116.981 24.2303 116.897 23.7358 116.643 23.3237C116.305 22.9116 115.967 22.4995 115.545 22.2523ZM114.024 27.8566C114.024 28.1863 113.94 28.516 113.771 28.7632C113.601 29.0929 113.348 29.2577 113.01 29.4225C112.673 29.5874 112.335 29.6698 111.912 29.6698C111.489 29.6698 111.152 29.5874 110.898 29.3401C110.644 29.1753 110.476 28.8456 110.476 28.4335C110.476 28.1863 110.56 27.939 110.644 27.7742C110.729 27.6094 110.982 27.4445 111.236 27.3621C111.489 27.2797 111.743 27.1973 112.081 27.1149C112.25 27.1149 112.419 27.0325 112.588 27.0325C112.757 27.0325 113.01 26.95 113.18 26.95C113.348 26.95 113.518 26.8676 113.686 26.8676C113.856 26.8676 113.94 26.7852 114.024 26.7028V27.8566Z" fill="black"/>
<path d="M123.827 29.258C123.742 29.258 123.572 29.258 123.404 29.258C123.235 29.258 123.066 29.258 122.897 29.1756C122.727 29.0932 122.644 29.0108 122.559 28.846C122.474 28.7635 122.474 28.5163 122.474 28.269V23.4888H124.333V21.4284H122.559V19.0383H119.77V21.4284H118.334V23.4888H119.686V28.5987C119.686 29.258 119.77 29.7526 120.108 30.2471C120.447 30.6592 120.785 30.9889 121.291 31.2361C121.798 31.4009 122.389 31.5658 123.066 31.4833C123.404 31.4833 123.742 31.4009 123.995 31.4009C124.248 31.3185 124.418 31.3185 124.587 31.2361L124.164 29.1756C124.08 29.258 123.995 29.258 123.827 29.258Z" fill="black"/>
<path d="M128.726 17.8843C128.388 17.637 128.051 17.4722 127.628 17.4722C127.205 17.4722 126.868 17.637 126.53 17.8843C126.192 18.2139 126.107 18.4612 126.107 18.8733C126.107 19.2853 126.276 19.615 126.53 19.8623C126.868 20.1095 127.205 20.2743 127.628 20.2743C128.051 20.2743 128.388 20.1095 128.726 19.8623C129.064 19.615 129.149 19.2853 129.149 18.8733C129.149 18.4612 129.064 18.1315 128.726 17.8843Z" fill="black"/>
<path d="M129.064 21.5105H126.277V31.4006H129.064V21.5105Z" fill="black"/>
<path d="M138.527 22.0051C137.767 21.593 136.921 21.3457 135.823 21.3457C134.81 21.3457 133.881 21.5106 133.12 22.0051C132.36 22.4171 131.852 22.9941 131.43 23.8182C131.007 24.56 130.839 25.4666 130.839 26.538C130.839 27.527 131.007 28.4336 131.43 29.1753C131.852 29.9171 132.444 30.494 133.12 30.9885C133.881 31.4006 134.725 31.6478 135.823 31.6478C136.838 31.6478 137.767 31.483 138.527 30.9885C139.288 30.5764 139.795 29.9995 140.217 29.1753C140.64 28.4336 140.808 27.527 140.808 26.538C140.808 25.4666 140.64 24.6424 140.217 23.8182C139.88 23.0765 139.288 22.4996 138.527 22.0051ZM137.767 28.0215C137.598 28.516 137.344 28.8457 137.091 29.0929C136.753 29.3402 136.415 29.505 135.908 29.505C135.401 29.505 134.979 29.4226 134.725 29.0929C134.387 28.8457 134.134 28.516 134.049 28.0215C133.881 27.6094 133.796 27.0325 133.796 26.4556C133.796 25.8787 133.881 25.3842 134.049 24.8897C134.219 24.3952 134.472 24.0655 134.725 23.8182C135.063 23.571 135.401 23.4061 135.908 23.4061C136.33 23.4061 136.753 23.571 137.091 23.8182C137.429 24.0655 137.682 24.4776 137.767 24.8897C137.936 25.3017 138.02 25.8787 138.02 26.4556C138.02 27.0325 137.936 27.527 137.767 28.0215Z" fill="black"/>
<path d="M151.623 23.1593C151.37 22.5824 150.947 22.1703 150.44 21.923C149.934 21.5934 149.342 21.4285 148.581 21.4285C147.821 21.4285 147.23 21.5934 146.639 21.923C146.132 22.2527 145.709 22.6648 145.541 23.2417H145.371V21.5109H142.667V31.401H145.456V25.7142C145.456 25.3021 145.541 24.9724 145.624 24.6428C145.794 24.3131 146.047 24.0659 146.301 23.9834C146.554 23.8186 146.892 23.7362 147.315 23.7362C147.906 23.7362 148.328 23.901 148.666 24.2307C149.004 24.5604 149.173 25.0549 149.173 25.6318V31.4834H151.961V25.2197C152.046 24.3131 151.877 23.6538 151.623 23.1593Z" fill="black"/>
</svg>
