<svg width="134" height="180" viewBox="0 0 134 180" fill="none" xmlns="http://www.w3.org/2000/svg">
<g opacity="0.5">
<path d="M74.3438 44.3209L89.3628 59.1626L74.3527 73.9919L74.3438 44.3209ZM74.3438 135.173L89.3628 120.334L74.3527 105.502L74.3438 135.173ZM58.3078 89.7471L25.84 57.5814L35.2509 48.2845L61.115 73.8548V12.5778L108.154 59.056L77.0955 89.7471L108.16 120.446L61.1187 166.926V105.644L35.2478 131.218L25.8364 121.915L58.3078 89.7471ZM67.0063 179.506C106.67 179.506 134 160.885 134 89.7497C134 18.6171 106.67 0 67.0063 0C27.3444 0 0 18.6202 0 89.7497C0 160.886 27.3418 179.506 67.0063 179.506Z" fill="white"/>
</g>
</svg>
