<svg width="294" height="55" viewBox="0 0 294 55" fill="none" xmlns="http://www.w3.org/2000/svg">
<g opacity="0.5">
<path d="M24.3366 44.6733C25.4965 44.6733 26.5973 44.5691 27.6332 44.3363C28.684 44.103 29.6165 43.7371 30.4032 43.1935C31.1899 42.6724 31.8405 41.9568 32.3154 41.045C32.7897 40.143 33.0165 38.9724 33.0165 37.5551C33.0165 34.7814 32.2424 32.8106 30.703 31.6145C29.16 30.4352 27.1026 29.8487 24.572 29.8487H11.7899V44.6733H24.3366ZM23.6877 21.7568C25.7698 21.7568 27.4937 21.2583 28.8603 20.2457C30.2126 19.2528 30.8695 17.6069 30.8695 15.3502C30.8695 14.0996 30.6507 13.0627 30.2126 12.2592C29.7607 11.4556 29.16 10.8263 28.4021 10.3868C27.6498 9.92889 26.8 9.61163 25.8123 9.442C24.8454 9.24979 23.8296 9.17626 22.7896 9.17626H11.7899V21.7568H23.6877ZM25.2083 0.00631625C27.7612 0.00631625 30.0661 0.229211 32.1735 0.689474C34.2677 1.137 36.0558 1.885 37.5666 2.91147C39.055 3.93563 40.2189 5.29905 41.0521 7.01621C41.8652 8.70905 42.2752 10.8268 42.2752 13.3331C42.2752 16.0437 41.6642 18.3068 40.4434 20.1161C39.2146 21.9229 37.4087 23.4051 34.9958 24.5566C38.2821 25.5089 40.715 27.1873 42.3292 29.5708C43.9513 31.9706 44.7443 34.8451 44.7443 38.2122C44.7443 40.9431 44.2252 43.2919 43.1911 45.269C42.1448 47.2704 40.7219 48.8932 38.9677 50.1443C37.1991 51.4076 35.1681 52.3339 32.893 52.9372C30.6156 53.5434 28.2695 53.8478 25.914 53.8426H0.0339355V0.0057373H25.2083V0.00631625Z" fill="white"/>
<path d="M73.7067 24.014C72.4435 22.6054 70.3068 21.8429 67.6993 21.8429C66.0019 21.8429 64.5968 22.1312 63.4736 22.7177C62.3745 23.2966 61.4724 24.018 60.7851 24.8662C60.0995 25.7288 59.6309 26.6383 59.3599 27.6115C59.0877 28.5604 58.9258 29.4207 58.8752 30.1815H76.1541C75.9008 27.45 74.974 25.4324 73.7067 24.014ZM61.5046 44.4936C63.0946 46.0591 65.3938 46.8482 68.3722 46.8482C70.5135 46.8482 72.3648 46.3023 73.9175 45.2127C75.4564 44.1272 76.3935 42.9641 76.7564 41.7581H86.1076C84.6048 46.4499 82.324 49.8003 79.2112 51.8162C76.138 53.8419 72.3866 54.8516 68.0174 54.8516C64.9717 54.8516 62.231 54.3531 59.7716 53.3753C57.3116 52.3841 55.2559 50.9941 53.5264 49.1831C51.8411 47.3635 50.5336 45.2127 49.601 42.6885C48.6783 40.1759 48.2114 37.3934 48.2114 34.3783C48.2114 31.4633 48.6966 28.7399 49.6395 26.2238C50.6042 23.699 51.9364 21.5199 53.6883 19.6921C55.4466 17.8545 57.5287 16.4049 59.9536 15.346C62.3808 14.2888 65.055 13.7596 68.0174 13.7596C71.2881 13.7596 74.1529 14.3936 76.6083 15.6875C79.0556 16.9612 81.0608 18.6882 82.6381 20.8517C84.2138 23.0118 85.3352 25.4816 86.0364 28.2495C86.73 31.0152 86.9752 33.9041 86.7748 36.9297H58.8747C58.8747 40.0103 59.9083 42.9276 61.5046 44.4936Z" fill="white"/>
<path d="M101.858 0.00595004V20.305H102.101C103.45 18.0465 105.155 16.4046 107.252 15.3868C109.344 14.3604 111.386 13.8532 113.374 13.8532C116.211 13.8532 118.535 14.2295 120.35 15.0042C122.166 15.7933 123.604 16.8608 124.656 18.2486C125.688 19.6305 126.418 21.317 126.846 23.3039C127.265 25.2868 127.482 27.4747 127.482 29.8866V53.8423H116.811V31.8307C116.811 28.6216 116.314 26.2091 115.325 24.6309C114.334 23.0504 112.574 22.2572 110.035 22.2572C107.164 22.2572 105.088 23.1343 103.802 24.866C102.493 26.597 101.858 29.4472 101.858 33.413V53.8423H91.1907V0.00537109H101.858" fill="white"/>
<path d="M155.966 35.7334C155.306 35.954 154.573 36.1404 153.818 36.3019C153.011 36.4532 152.199 36.5787 151.384 36.6783C150.538 36.7774 149.695 36.9007 148.855 37.0482C148.061 37.2051 147.266 37.4014 146.509 37.6573C145.739 37.9108 145.064 38.2478 144.508 38.6733C143.934 39.1041 143.462 39.6567 143.124 40.292C142.782 40.9422 142.6 41.7863 142.6 42.7844C142.6 43.7368 142.782 44.5404 143.123 45.2004C143.474 45.8546 143.933 46.3658 144.534 46.7438C145.134 47.1219 145.838 47.3876 146.621 47.5353C147.416 47.6945 148.237 47.7541 149.079 47.7541C151.167 47.7541 152.777 47.4044 153.924 46.7033C155.066 45.9976 155.926 45.1558 156.463 44.1745C157.01 43.1932 157.341 42.2037 157.448 41.2062C157.588 40.2023 157.651 39.3929 157.651 38.7856V34.781C157.191 35.1921 156.649 35.5088 155.966 35.7334ZM135.064 20.565C136.126 18.9219 137.554 17.5507 139.233 16.5598C140.928 15.5467 142.822 14.8328 144.95 14.4056C147.055 13.9716 149.197 13.7551 151.345 13.7595C153.281 13.7595 155.24 13.8944 157.258 14.1723C159.242 14.4484 161.058 14.9903 162.704 15.7974C164.348 16.609 165.689 17.7195 166.726 19.1686C167.779 20.5812 168.312 22.4946 168.312 24.866V45.1818C168.312 46.9482 168.417 48.6266 168.604 50.2337C168.815 51.8548 169.36 53.0706 169.875 53.8684L159.028 53.8417C158.71 53.3757 158.446 52.6456 158.322 52.0099C158.195 51.377 158.108 50.7365 158.061 50.0925C156.371 51.8548 154.391 53.0937 152.083 53.8006C149.808 54.4978 147.442 54.8519 145.064 54.8514C143.226 54.8514 141.515 54.6164 139.914 54.1625C138.336 53.7086 136.935 53.0057 135.741 52.0551C134.541 51.0859 133.618 49.884 132.944 48.4286C132.276 46.965 131.931 45.2229 131.931 43.2117C131.931 40.9914 132.327 39.1637 133.107 37.7325C133.867 36.3019 134.855 35.1504 136.09 34.2982C137.304 33.4396 138.699 32.7935 140.279 32.3726C141.836 31.9454 143.415 31.6035 145.009 31.3485C146.609 31.1013 148.166 30.9009 149.721 30.7452C151.28 30.5918 152.631 30.3735 153.837 30.0667C155.027 29.7679 155.98 29.314 156.68 28.7397C157.367 28.1637 157.698 27.3254 157.651 26.2091C157.651 25.0559 157.448 24.1365 157.081 23.4493C156.734 22.8017 156.224 22.2575 155.603 21.8711C154.977 21.4907 154.271 21.2418 153.458 21.1086C152.584 20.9821 151.702 20.9192 150.82 20.9205C148.742 20.9205 147.097 21.3865 145.932 22.2821C144.733 23.2038 144.044 24.7207 143.831 26.8385H133.178C133.332 24.3102 133.949 22.2225 135.064 20.565Z" fill="white"/>
<path d="M184.239 14.8716V20.3051H184.476C185.82 18.0466 187.553 16.4047 189.707 15.3869C191.842 14.3604 194.054 13.8533 196.297 13.8533C199.145 13.8533 201.483 14.2296 203.29 15.0042C205.129 15.7933 206.558 16.8609 207.594 18.2486C208.657 19.6306 209.386 21.3171 209.812 23.304C210.242 25.2869 210.456 27.4748 210.456 29.8866V53.8423H199.78V31.8308C199.78 28.6216 199.279 26.2092 198.283 24.631C197.274 23.0504 195.532 22.0373 192.975 22.0373C190.086 22.0373 187.981 23.1344 186.688 24.866C185.386 26.5971 184.741 29.4472 184.741 33.413V53.8423H174.182V14.8716H184.239Z" fill="white"/>
<path d="M234.085 21.8429C232.378 21.8429 230.968 22.2227 229.835 23.0124C228.679 23.7909 227.713 24.8238 227.01 26.0333C226.287 27.2619 225.786 28.6212 225.476 30.1097C225.186 31.5959 225.024 33.0681 225.024 34.5317C225.024 35.9461 225.186 37.3795 225.476 38.8431C225.786 40.2986 226.262 41.6128 226.936 42.8106C227.613 43.9791 228.551 44.9724 229.675 45.7118C230.816 46.4702 232.205 46.8482 233.853 46.8482C236.41 46.8482 238.369 46.1286 239.742 44.7038C241.109 43.2709 241.954 41.3453 242.31 38.9329H252.566C251.863 44.1029 249.867 48.0524 246.585 50.7752C243.29 53.4801 239.071 54.8516 233.933 54.8516C231.029 54.8516 228.391 54.3531 225.958 53.3753C223.529 52.3841 221.467 51.019 219.768 49.2566C218.069 47.4903 216.751 45.391 215.786 42.9502C214.843 40.5047 214.368 37.8207 214.368 34.908C214.368 31.8905 214.808 29.0797 215.682 26.4814C216.552 23.8935 217.838 21.6507 219.551 19.7697C221.248 17.8765 223.325 16.4049 225.78 15.346C228.225 14.2888 231.019 13.7596 234.156 13.7596C236.451 13.7596 238.655 14.0723 240.784 14.657C242.897 15.2539 244.796 16.1762 246.463 17.4128C248.13 18.6348 249.523 20.1971 250.551 21.9981C251.587 23.8235 252.179 26.0107 252.343 28.5112H241.93C241.24 24.0626 238.625 21.8429 234.085 21.8429Z" fill="white"/>
<path d="M56.7034 3.61755H78.348V8.93113H56.7034V3.61755Z" fill="white"/>
<path d="M280.868 24.014C279.588 22.6054 277.434 21.8429 274.86 21.8429C273.164 21.8429 271.755 22.1312 270.612 22.7177C269.511 23.2966 268.505 24.018 267.83 24.8662C267.155 25.7288 266.67 26.6383 266.389 27.6115C266.137 28.5604 265.96 29.4207 265.914 30.1815H283.323C283.039 27.45 282.134 25.4324 280.867 24.014H280.868ZM268.533 44.4936C270.13 46.0591 272.538 46.8482 275.539 46.8482C277.676 46.8482 279.523 46.3023 281.066 45.2127C282.609 44.1272 283.566 42.9641 283.907 41.7581H293.258C291.763 46.4499 289.468 49.8003 286.376 51.8162C283.29 53.8419 279.556 54.8516 275.17 54.8516C272.117 54.8516 269.364 54.3531 266.924 53.3753C264.468 52.3841 262.411 50.9941 260.689 49.1831C258.986 47.3635 257.68 45.2127 256.751 42.6885C255.829 40.1759 255.371 37.3934 255.371 34.3783C255.371 31.4633 255.845 28.7399 256.79 26.2238C257.747 23.699 259.107 21.5199 260.849 19.6921C262.615 17.8545 264.679 16.4049 267.098 15.346C269.527 14.2888 272.224 13.7596 275.17 13.7596C278.436 13.7596 281.314 14.3936 283.744 15.6875C286.198 16.9612 288.213 18.6882 289.778 20.8517C291.354 23.0118 292.487 25.4816 293.183 28.2495C293.868 31.0152 294.132 33.9041 293.935 36.9297H265.914C265.914 40.0103 266.934 42.9276 268.533 44.4936Z" fill="white"/>
</g>
</svg>
