<svg width="130" height="196" viewBox="0 0 130 196" fill="none" xmlns="http://www.w3.org/2000/svg">
<g opacity="0.5">
<path d="M32.5 196C50.44 196 65 181.365 65 163.333V130.667H32.5C14.56 130.667 0 145.301 0 163.333C0 181.365 14.56 196 32.5 196Z" fill="white"/>
<path d="M0 98C0 79.968 14.56 65.3334 32.5 65.3334H65V130.667H32.5C14.56 130.667 0 116.032 0 98Z" fill="white"/>
<path d="M0 32.6667C0 14.6347 14.56 0 32.5 0H65V65.3333H32.5C14.56 65.3333 0 50.6987 0 32.6667Z" fill="white" fill-opacity="0.4"/>
<path d="M65 0H97.5C115.44 0 130 14.6347 130 32.6667C130 50.6987 115.44 65.3333 97.5 65.3333H65V0Z" fill="white" fill-opacity="0.2"/>
<path d="M130 98C130 116.032 115.44 130.667 97.5 130.667C79.56 130.667 65 116.032 65 98C65 79.968 79.56 65.3334 97.5 65.3334C115.44 65.3334 130 79.968 130 98Z" fill="white"/>
</g>
</svg>
