<svg width="45" height="36" viewBox="0 0 45 36" fill="none" xmlns="http://www.w3.org/2000/svg">
<path d="M1 20.2727C0.447717 20.2727 1.29146e-06 19.825 1.33556e-06 19.2727L1.5388e-06 16.7273C1.58289e-06 16.175 0.447717 15.7273 1 15.7273L34.51 15.7273C35.3854 15.7273 35.8382 14.682 35.2395 14.0433L25.7406 3.91121C25.38 3.52656 25.38 2.92799 25.7406 2.54333L27.3955 0.778174C27.7905 0.35676 28.4595 0.35676 28.8545 0.778174L44.3588 17.3161C44.7194 17.7007 44.7194 18.2993 44.3588 18.6839L28.8545 35.2218C28.4595 35.6432 27.7905 35.6432 27.3955 35.2218L25.7406 33.4567C25.38 33.072 25.38 32.4734 25.7406 32.0888L35.2395 21.9567C35.8382 21.318 35.3854 20.2727 34.51 20.2727L1 20.2727Z" fill="white"/>
</svg>
