<svg width="60" height="47" viewBox="0 0 60 47" fill="none" xmlns="http://www.w3.org/2000/svg">
<path d="M0.999998 26.4672C0.447714 26.4672 -2.13954e-06 26.0195 -2.09545e-06 25.4672L-1.78132e-06 21.5328C-1.73722e-06 20.9805 0.447714 20.5328 0.999998 20.5328L46.749 20.5328C47.6295 20.5328 48.0802 19.4772 47.4713 18.8413L34.1281 4.90496C33.7578 4.51825 33.7578 3.90853 34.1281 3.52182L36.7777 0.754419C37.1714 0.343179 37.8286 0.343179 38.2223 0.754419L59.3379 22.8084C59.7081 23.1951 59.7081 23.8049 59.3379 24.1916L38.2223 46.2456C37.8286 46.6568 37.1714 46.6568 36.7777 46.2456L34.1281 43.4782C33.7578 43.0915 33.7578 42.4818 34.1281 42.095L47.4713 28.1587C48.0802 27.5228 47.6295 26.4672 46.749 26.4672L0.999998 26.4672Z" fill="black"/>
</svg>
