<svg width="45" height="35" viewBox="0 0 45 35" fill="none" xmlns="http://www.w3.org/2000/svg">
<path d="M1.00001 19.7256C0.447721 19.7256 5.10722e-06 19.2779 5.15262e-06 18.7256L5.35112e-06 16.3111C5.39653e-06 15.7588 0.447721 15.3111 1.00001 15.3111L34.463 15.3111C35.3454 15.3111 35.7953 14.2514 35.1825 13.6165L25.7698 3.86554C25.3958 3.47806 25.3958 2.86398 25.7698 2.47651L27.4055 0.78203C27.7987 0.374716 28.4513 0.374716 28.8445 0.782031L44.3296 16.8238C44.7036 17.2113 44.7036 17.8254 44.3296 18.2129L28.8445 34.2547C28.4513 34.662 27.7987 34.662 27.4055 34.2547L25.7698 32.5602C25.3958 32.1727 25.3958 31.5586 25.7698 31.1711L35.1825 21.4201C35.7953 20.7853 35.3454 19.7256 34.463 19.7256L1.00001 19.7256Z" fill="white"/>
</svg>
