<svg width="193" height="195" viewBox="0 0 193 195" fill="none" xmlns="http://www.w3.org/2000/svg">
<path d="M16.8936 141.57L16.8936 135.57L16.8936 141.57ZM133.507 61.5768L139.507 61.5768L133.507 61.5768ZM154.671 61.5768L160.671 61.5768L154.671 61.5768ZM56.733 128.45C53.4193 128.45 50.733 131.136 50.733 134.45C50.733 137.764 53.4193 140.45 56.733 140.45L56.733 128.45ZM50.0931 53.2007L46.8508 48.1522L50.0931 53.2007ZM64.6179 115.321C67.9316 115.321 70.6179 112.635 70.6179 109.321C70.6179 106.008 67.9316 103.321 64.6179 103.321L64.6179 115.321ZM40.9632 109.321L40.9632 103.321L40.9632 109.321ZM164.633 109.321L164.633 115.321L164.633 109.321ZM140 103.321C136.686 103.321 134 106.008 134 109.321C134 112.635 136.686 115.321 140 115.321L140 103.321ZM197.835 140.45C201.148 140.45 203.835 137.764 203.835 134.45C203.835 131.136 201.148 128.45 197.835 128.45L197.835 140.45ZM122 80L122 86L122 80ZM20.6322 172.006C17.3185 172.006 14.6322 174.693 14.6322 178.006C14.6322 181.32 17.3185 184.006 20.6322 184.006L20.6322 172.006ZM111.516 178.006L117.516 178.006L111.516 178.006ZM147.205 184.006C150.519 184.006 153.205 181.32 153.205 178.006C153.205 174.693 150.519 172.006 147.205 172.006L147.205 184.006ZM118.571 146.878C115.257 146.878 112.571 149.564 112.571 152.878C112.571 156.191 115.257 158.878 118.571 158.878L118.571 146.878ZM194.93 184.006C198.243 184.006 200.93 181.32 200.93 178.006C200.93 174.693 198.243 172.006 194.93 172.006L194.93 184.006ZM165.307 176.985L170.538 174.048L165.307 176.985ZM152.343 153.898L147.112 156.836L152.343 153.898ZM172.493 44.469L166.495 44.6311L172.493 44.469ZM174.539 46.5553L174.206 52.5461L174.539 46.5553ZM80.223 14.9742L83.7031 10.0865L80.223 14.9742ZM83.273 14.4181L88.2626 17.7503L83.273 14.4181ZM81.5848 90.3376L76.9732 94.1761L81.5848 90.3376ZM33.1434 44.3226L27.4166 46.1128L33.1434 44.3226ZM10.8936 141.57L10.8936 157.578L22.8936 157.578L22.8936 141.57L10.8936 141.57ZM18.8936 165.578L94.9873 165.578L94.9873 153.578L18.8936 153.578L18.8936 165.578ZM102.987 157.578L102.987 63.5768L90.9873 63.5768L90.9873 157.578L102.987 157.578ZM98.9873 67.5768L133.507 67.5768L133.507 55.5768L98.9873 55.5768L98.9873 67.5768ZM139.507 61.5768C139.507 59.63 140.169 58.6661 140.779 58.129C141.504 57.4909 142.654 57.0404 144.03 57.054C145.407 57.0676 146.607 57.5444 147.383 58.2321C148.047 58.8217 148.671 59.7887 148.671 61.5768L160.671 61.5768C160.671 56.4546 158.65 52.1865 155.346 49.2555C152.153 46.4227 148.062 45.0933 144.148 45.0546C140.233 45.0158 136.092 46.2667 132.849 49.123C129.49 52.0804 127.507 56.4039 127.507 61.5768L139.507 61.5768ZM148.671 61.5768C148.671 63.6915 147.96 64.7993 147.294 65.4142C146.535 66.115 145.393 66.5707 144.089 66.5707C142.785 66.5707 141.643 66.115 140.884 65.4142C140.218 64.7994 139.507 63.6915 139.507 61.5768L127.507 61.5768C127.507 66.7913 129.441 71.1805 132.743 74.2302C135.953 77.194 140.102 78.5707 144.089 78.5707C148.076 78.5707 152.226 77.194 155.435 74.2302C158.738 71.1804 160.671 66.7913 160.671 61.5768L148.671 61.5768ZM16.8936 147.57C22.1118 147.57 26.4864 145.596 29.5087 142.263C32.4391 139.031 33.7872 134.871 33.7872 130.89C33.7872 126.909 32.4391 122.75 29.5087 119.518C26.4864 116.184 22.1118 114.21 16.8936 114.21L16.8936 126.21C18.9377 126.21 20.01 126.907 20.6188 127.578C21.3197 128.351 21.7872 129.531 21.7872 130.89C21.7872 132.249 21.3197 133.429 20.6188 134.202C20.01 134.874 18.9377 135.57 16.8936 135.57L16.8936 147.57ZM16.8936 114.21C11.6753 114.21 7.30081 116.184 4.27847 119.518C1.34814 122.75 9.40545e-06 126.909 9.23144e-06 130.89C9.05743e-06 134.871 1.34814 139.031 4.27847 142.263C7.30081 145.596 11.6753 147.57 16.8936 147.57L16.8936 135.57C14.8495 135.57 13.7772 134.874 13.1683 134.202C12.4675 133.429 12 132.249 12 130.89C12 129.531 12.4675 128.351 13.1683 127.578C13.7772 126.907 14.8495 126.21 16.8936 126.21L16.8936 114.21ZM56.733 140.45L80.0476 140.45L80.0476 128.45L56.733 128.45L56.733 140.45ZM88.0476 132.45L88.0476 91.6171L76.0476 91.6171L76.0476 132.45L88.0476 132.45ZM86.1963 86.4992L69.2294 66.1148L60.0063 73.7916L76.9732 94.1761L86.1963 86.4992ZM68.3076 74.6846C76.1898 68.5377 75.0748 58.2669 70.8394 52.1814C68.5862 48.9439 65.1299 46.2255 60.722 45.2488C56.218 44.2507 51.4113 45.2234 46.8508 48.1522L53.3353 58.2493C55.6223 56.7806 57.1961 56.7586 58.1259 56.9646C59.1519 57.1919 60.1827 57.8763 60.99 59.0364C62.8758 61.7459 62.1758 64.2488 60.9281 65.2218L68.3076 74.6846ZM46.8508 48.1522C37.8291 53.9461 38.6427 64.7973 43.0141 71.1702C45.3287 74.5445 48.9394 77.3489 53.5414 78.2877C58.2339 79.2449 63.2314 78.1175 67.9672 74.9313L61.2686 64.975C58.7419 66.6749 56.9771 66.7414 55.94 66.5298C54.8125 66.2998 53.7263 65.5726 52.9098 64.3822C52.0718 63.1607 51.7378 61.7595 51.8499 60.644C51.9476 59.6721 52.3609 58.8751 53.3353 58.2493L46.8508 48.1522ZM64.6179 103.321L40.9632 103.321L40.9632 115.321L64.6179 115.321L64.6179 103.321ZM40.9632 103.321C23.792 103.321 14.453 92.7119 12.8236 81.4798C11.1919 70.2314 17.1584 57.5265 33.3255 52.8541L29.9938 41.3259C8.00274 47.6815 -1.53412 66.0923 0.947933 83.2025C3.43235 100.329 17.8243 115.321 40.9632 115.321L40.9632 103.321ZM38.8701 42.5324C35.6371 32.1902 39.784 22.9509 47.2641 17.9593C54.6817 13.0094 65.7798 12.0559 76.7429 19.8618L83.7031 10.0865C68.8186 -0.51144 52.3013 0.171341 40.6031 7.97772C28.9674 15.7424 22.4983 30.3793 27.4166 46.1128L38.8701 42.5324ZM88.2626 17.7503C99.0562 1.58829 118.234 -4.04946 135.008 0.53515C151.47 5.03462 165.816 19.5045 166.495 44.6311L178.49 44.3068C177.669 13.9236 159.764 -5.13847 138.172 -11.0403C116.89 -16.8569 92.2085 -9.76525 78.2834 11.0858L88.2626 17.7503ZM174.206 52.5461C189.537 53.3982 199.088 66.0947 198.999 78.6828C198.956 84.8265 196.592 90.7953 191.453 95.2946C186.281 99.8215 177.755 103.321 164.633 103.321L164.633 115.321C179.856 115.321 191.458 111.238 199.356 104.324C207.286 97.3823 210.934 88.0529 210.999 78.7674C211.128 60.4971 197.288 41.8105 174.872 40.5646L174.206 52.5461ZM164.633 103.321L140 103.321L140 115.321L164.633 115.321L164.633 103.321ZM116 101.359L116 132.45L128 132.45L128 101.359L116 101.359ZM124 140.45L197.835 140.45L197.835 128.45L124 128.45L124 140.45ZM122 95.3593C120.266 95.3593 119.192 94.7356 118.48 93.9605C117.681 93.0915 117.155 91.8136 117.102 90.4467C117.049 89.0868 117.469 88.008 118.07 87.3357C118.58 86.7646 119.646 86 122 86L122 74C116.677 74 112.192 75.9053 109.123 79.3391C106.144 82.6717 104.956 86.9327 105.111 90.9126C105.416 98.7725 111.272 107.359 122 107.359L122 95.3593ZM122 107.359C127.225 107.359 131.593 105.376 134.57 101.971C137.445 98.6838 138.658 94.4966 138.581 90.5631C138.43 82.7597 132.865 74 122 74L122 86C123.723 86 124.704 86.6117 125.332 87.3195C126.057 88.1364 126.556 89.3879 126.583 90.7962C126.611 92.2026 126.164 93.3552 125.536 94.0727C125.012 94.6723 124.037 95.3593 122 95.3593L122 107.359ZM20.6322 184.006L111.516 184.006L111.516 172.006L20.6322 172.006L20.6322 184.006ZM117.516 178.006C117.516 176.059 118.178 175.095 118.788 174.558C119.513 173.92 120.663 173.47 122.039 173.483C123.416 173.497 124.616 173.974 125.392 174.661C126.056 175.251 126.68 176.218 126.68 178.006L138.68 178.006C138.68 172.884 136.659 168.616 133.355 165.685C130.162 162.852 126.072 161.523 122.158 161.484C118.242 161.445 114.101 162.696 110.858 165.552C107.499 168.51 105.516 172.833 105.516 178.006L117.516 178.006ZM126.68 178.006C126.68 180.121 125.969 181.229 125.303 181.844C124.544 182.544 123.402 183 122.098 183C120.794 183 119.652 182.544 118.893 181.844C118.228 181.229 117.516 180.121 117.516 178.006L105.516 178.006C105.516 183.221 107.45 187.61 110.752 190.66C113.962 193.623 118.111 195 122.098 195C126.086 195 130.235 193.623 133.444 190.66C136.747 187.61 138.68 183.221 138.68 178.006L126.68 178.006ZM132.68 184.006L147.205 184.006L147.205 172.006L132.68 172.006L132.68 184.006ZM118.571 158.878L150.599 158.878L150.599 146.878L118.571 146.878L118.571 158.878ZM147.112 156.836L160.075 179.923L170.538 174.048L157.575 150.961L147.112 156.836ZM167.051 184.006L194.93 184.006L194.93 172.006L167.051 172.006L167.051 184.006ZM160.075 179.923C161.491 182.445 164.158 184.006 167.051 184.006L167.051 172.006C168.497 172.006 169.83 172.787 170.538 174.048L160.075 179.923ZM150.599 158.878C149.153 158.878 147.82 158.097 147.112 156.836L157.575 150.961C156.159 148.439 153.492 146.878 150.599 146.878L150.599 158.878ZM166.495 44.6311C166.611 48.9242 170.054 52.3154 174.206 52.5461L174.872 40.5646C176.817 40.6727 178.434 42.2221 178.49 44.3068L166.495 44.6311ZM76.7429 19.8618C80.4641 22.5114 85.7034 21.5825 88.2626 17.7503L78.2834 11.0858C79.5053 9.25629 81.9436 8.83373 83.7031 10.0865L76.7429 19.8618ZM116 132.45C116 136.868 119.582 140.45 124 140.45L124 128.45C126.209 128.45 128 130.241 128 132.45L116 132.45ZM88.0476 91.6171C88.0476 89.7472 87.3926 87.9364 86.1963 86.4992L76.9732 94.1761C76.3751 93.4575 76.0476 92.5521 76.0476 91.6171L88.0476 91.6171ZM80.0476 140.45C84.4658 140.45 88.0476 136.868 88.0476 132.45L76.0476 132.45C76.0476 130.241 77.8384 128.45 80.0476 128.45L80.0476 140.45ZM33.3255 52.8541C37.742 51.5777 40.2313 46.8869 38.8701 42.5324L27.4166 46.1128C26.7806 44.0781 27.9122 41.9275 29.9938 41.3259L33.3255 52.8541ZM102.987 63.5768C102.987 65.786 101.196 67.5768 98.9873 67.5768L98.9873 55.5768C94.5691 55.5768 90.9873 59.1585 90.9873 63.5768L102.987 63.5768ZM94.9873 165.578C99.4056 165.578 102.987 161.997 102.987 157.578L90.9873 157.578C90.9873 155.369 92.7782 153.578 94.9873 153.578L94.9873 165.578ZM10.8936 157.578C10.8936 161.997 14.4753 165.578 18.8936 165.578L18.8936 153.578C21.1027 153.578 22.8936 155.369 22.8936 157.578L10.8936 157.578Z" fill="#FFD1D4"/>
</svg>
