<svg width="208" height="214" viewBox="0 0 208 214" fill="none" xmlns="http://www.w3.org/2000/svg">
<path d="M187.008 27.6719C187.092 30.3038 186.644 32.9257 185.69 35.3817C184.737 37.8377 183.298 40.0778 181.459 41.969C179.619 43.8602 177.417 45.3639 174.983 46.3908C172.549 47.4177 169.933 47.9468 167.29 47.9468C164.646 47.9468 162.03 47.4177 159.596 46.3908C157.162 45.3639 154.96 43.8602 153.121 41.969C151.282 40.0778 149.842 37.8377 148.889 35.3817C147.936 32.9257 147.487 30.3038 147.571 27.6719C147.733 22.5693 149.881 17.7297 153.562 14.1773C157.242 10.6249 162.165 8.63853 167.29 8.63853C172.414 8.63853 177.338 10.6249 181.018 14.1773C184.698 17.7297 186.847 22.5693 187.008 27.6719ZM0 8.03732C0 -4.96819 5.18599 -17.441 14.4171 -26.6373C23.6482 -35.8336 36.1683 -41 49.2231 -41H187.008C200.063 -41 212.583 -35.8336 221.814 -26.6373C231.046 -17.441 236.232 -4.96819 236.232 8.03732V38.5974C229.761 37.1658 223.072 37.0125 216.542 38.1462V8.03732C216.542 0.23402 213.431 -7.24968 207.892 -12.7675C202.353 -18.2852 194.841 -21.3851 187.008 -21.3851H49.2231C41.3903 -21.3851 33.8782 -18.2852 28.3395 -12.7675C22.8008 -7.24968 19.6892 0.23402 19.6892 8.03732V145.303C19.6892 149.853 20.7131 154.149 22.5639 157.993L94.4493 86.3794C100.726 80.1269 109.239 76.6143 118.116 76.6143C126.992 76.6143 135.505 80.1269 141.782 86.3794L148.477 93.0484L134.576 106.916L127.862 100.247C126.582 98.972 125.063 97.9605 123.39 97.2704C121.718 96.5803 119.926 96.2251 118.116 96.2251C116.306 96.2251 114.513 96.5803 112.841 97.2704C111.169 97.9605 109.649 98.972 108.37 100.247L36.4842 171.842C40.3433 173.685 44.6552 174.725 49.2231 174.725H84.585L79.6627 194.34H49.2231C36.1683 194.34 23.6482 189.174 14.4171 179.977C5.18599 170.781 0 158.308 0 145.303V8.03732ZM221.76 57.212C214.857 57.9966 208.423 61.0871 203.508 65.9798L119.12 150.089C112.277 156.903 107.371 165.404 104.904 174.725L104.727 175.372L98.7613 199.126C98.2567 201.131 98.2824 203.233 98.8358 205.225C99.3891 207.218 100.451 209.034 101.919 210.495C103.386 211.957 105.209 213.016 107.209 213.567C109.209 214.118 111.318 214.144 113.331 213.641L137.155 207.698C146.768 205.306 155.547 200.357 162.554 193.379L246.982 109.27C251.496 104.782 254.495 99.0062 255.565 92.7433C256.634 86.4803 255.721 80.041 252.95 74.3188C250.18 68.5966 245.691 63.8753 240.105 60.8098C234.52 57.7444 228.115 56.487 221.78 57.212H221.76Z" fill="#F79256" fill-opacity="0.2"/>
</svg>
