<svg width="262" height="206" viewBox="0 0 262 206" fill="none" xmlns="http://www.w3.org/2000/svg">
<path fill-rule="evenodd" clip-rule="evenodd" d="M91.6769 -55.7482C65.345 -52.618 46.2525 -43.7304 29.164 -26.6482C13.86 -11.3488 4.78044 6.44172 0.918689 28.696C-0.30623 35.7557 -0.30623 51.808 0.918689 58.8678C4.804 81.2598 13.7647 98.8172 29.1646 114.211C45.4143 130.456 64.6744 139.837 87.9888 142.863C106.459 145.261 126.176 141.833 143.663 133.186C146.333 131.866 149.259 130.327 150.166 129.767L151.815 128.748L157.585 135.667L163.355 142.586L172.194 133.877C177.054 129.087 184.952 121.193 189.743 116.334L198.454 107.498L191.58 101.769L184.707 96.0399L187.985 89.7561C192.168 81.7407 194.529 75.6002 196.457 67.7231C200.115 52.779 200.429 39.0405 197.449 24.3208L196.464 19.4555L204.592 11.3213L212.72 3.18763L215.212 4.04084C228.572 8.61573 242.866 -0.124336 245.217 -14.3053C247.672 -29.1141 234.014 -42.7671 219.201 -40.3135C205.018 -37.9638 196.272 -23.6732 200.847 -10.3235L201.698 -7.83757L196.39 -2.51344C193.471 0.414936 190.952 2.81121 190.793 2.81121C190.634 2.81121 189.618 0.970093 188.537 -1.28073C184.324 -10.0433 177.791 -18.9637 169.573 -27.1696C153.51 -43.2116 132.554 -53.0712 109.243 -55.5541C104.572 -56.0518 95.1109 -56.1563 91.6769 -55.7482ZM110.037 -39.9519C130.749 -37.2376 148.089 -28.1421 162.245 -12.5661C168.742 -5.41724 174.569 3.83906 177.918 12.3328L178.944 14.9354L167.263 26.6039L155.583 38.2718L152.831 37.3187C149.11 36.0297 142.34 36.0302 138.617 37.3193L135.864 38.2729L128.175 30.5868L120.486 22.9007L121.34 20.4096C126.818 4.42443 112.804 -12.328 96.2477 -9.58549C82.0625 -7.23531 73.319 7.05474 77.8954 20.4096L78.7489 22.9007L71.0546 30.5924L63.3603 38.2841L60.8685 37.4309C47.5091 32.856 33.2143 41.5966 30.8634 55.777C28.4089 70.5859 42.0664 84.2388 56.8802 81.7852C71.0654 79.435 79.8089 65.145 75.2325 51.7901L74.379 49.2991L82.0676 41.613L89.7563 33.9269L92.5099 34.8805C94.3557 35.5196 96.698 35.8341 99.6176 35.8341C102.537 35.8341 104.879 35.5196 106.725 34.8805L109.479 33.9269L117.168 41.613L124.856 49.2991L124.003 51.7901C118.525 67.7753 132.539 84.5277 149.095 81.7852C163.281 79.435 172.024 65.145 167.447 51.7901L166.594 49.2991L174.838 41.0573C179.373 36.5244 183.21 32.9431 183.365 33.0988C183.521 33.2545 183.791 36.2402 183.964 39.734C184.947 59.5484 178.943 78.7657 166.694 95.0049C156.725 108.222 142.493 118.346 126.071 123.902C109.446 129.527 90.6103 129.612 73.8533 124.138C43.1807 114.118 21.1076 88.2248 16.0486 56.3291C15.2115 51.0511 15.2115 36.5126 16.0486 31.2346C20.0123 6.24711 34.7138 -15.6409 56.2383 -28.6005C72.2708 -38.2537 91.7061 -42.3543 110.037 -39.9519ZM191.651 136.045L173.284 154.48L174.288 155.594C174.84 156.206 182.564 165.349 191.45 175.912C200.337 186.475 208.727 196.198 210.094 197.519C215.268 202.518 221.822 205.369 229.417 205.923C246.643 207.182 262 192.795 262 175.4C262 171.562 260.821 166.301 259.101 162.461C257.786 159.527 254.343 154.726 252.218 152.866C247.73 148.937 210.636 117.764 210.369 117.698C210.177 117.649 201.754 125.906 191.651 136.045Z" fill="#5353C5" fill-opacity="0.2"/>
</svg>
