<svg width="537" height="443" viewBox="0 0 537 443" fill="none" xmlns="http://www.w3.org/2000/svg">
<path d="M268.5 -58.2H286.4C286.4 -61.5215 285.476 -64.7774 283.731 -67.6035C281.986 -70.4297 279.489 -72.7146 276.519 -74.2026L268.5 -58.2ZM268.5 -22.4L276.519 -6.3974C279.489 -7.88542 281.986 -10.1703 283.731 -12.9965C285.476 -15.8226 286.4 -19.0785 286.4 -22.4H268.5ZM232.7 -4.5L224.681 -20.5026C221.88 -19.0973 219.497 -16.9813 217.771 -14.3662C216.044 -11.7511 215.034 -8.72861 214.842 -5.60087C214.65 -2.47313 215.282 0.65023 216.676 3.45692C218.07 6.26362 220.176 8.65528 222.783 10.3928L232.7 -4.5ZM286.4 31.3L276.483 46.1928C279.42 48.151 282.87 49.1973 286.4 49.2V31.3ZM304.3 31.3V49.2C309.047 49.2 313.6 47.3141 316.957 43.9572C320.314 40.6003 322.2 36.0474 322.2 31.3H304.3ZM304.3 -4.5V-22.4C299.553 -22.4 295 -20.5141 291.643 -17.1572C288.286 -13.8003 286.4 -9.24738 286.4 -4.5H304.3ZM358 -4.5H375.9C375.9 -9.24738 374.014 -13.8003 370.657 -17.1572C367.3 -20.5141 362.747 -22.4 358 -22.4V-4.5ZM358 31.3H340.1C340.096 33.6522 340.555 35.9822 341.452 38.1568C342.349 40.3313 343.666 42.3078 345.327 43.9732L358 31.3ZM375.9 49.2H393.8C393.804 46.8478 393.345 44.5178 392.448 42.3432C391.551 40.1687 390.234 38.1922 388.573 36.5268L375.9 49.2ZM375.9 85L388.573 97.6732C390.234 96.0078 391.551 94.0314 392.448 91.8568C393.345 89.6822 393.804 87.3522 393.8 85H375.9ZM358 102.9V120.8C360.352 120.804 362.682 120.345 364.857 119.448C367.031 118.551 369.008 117.234 370.673 115.573L358 102.9ZM322.2 102.9L314.181 118.903C316.67 120.15 319.416 120.8 322.2 120.8V102.9ZM250.6 67.1L258.619 51.0974C256.13 49.8501 253.384 49.2006 250.6 49.2006C247.816 49.2006 245.07 49.8501 242.581 51.0974L250.6 67.1ZM214.8 85V102.9C217.584 102.9 220.33 102.25 222.819 101.003L214.8 85ZM161.1 85V67.1C157.107 67.1011 153.229 68.4371 150.083 70.8957C146.937 73.3542 144.703 76.7941 143.737 80.6682L161.1 85ZM143.2 156.6L125.837 152.268C125.084 155.266 125.12 158.408 125.942 161.389C126.764 164.369 128.343 167.085 130.527 169.273L143.2 156.6ZM196.9 210.3L184.227 222.973C185.59 224.325 187.161 225.45 188.881 226.303L196.9 210.3ZM232.7 228.2H250.6C250.6 224.879 249.676 221.623 247.931 218.796C246.186 215.97 243.689 213.685 240.719 212.197L232.7 228.2ZM232.7 281.9H214.8C214.796 284.252 215.255 286.582 216.152 288.757C217.049 290.931 218.366 292.908 220.027 294.573L232.7 281.9ZM250.6 299.8H268.5C268.504 297.448 268.045 295.118 267.148 292.943C266.251 290.769 264.934 288.792 263.273 287.127L250.6 299.8ZM250.6 335.6H232.7C232.7 338.384 233.35 341.13 234.597 343.619L250.6 335.6ZM268.5 371.4L252.497 379.419C253.985 382.389 256.27 384.886 259.096 386.631C261.923 388.376 265.179 389.3 268.5 389.3V371.4ZM304.3 371.4V389.3C307.248 389.298 310.15 388.569 312.748 387.176C315.346 385.784 317.56 383.771 319.193 381.317L304.3 371.4ZM340.1 317.7L354.993 327.617C355.401 327.007 355.772 326.374 356.103 325.719L340.1 317.7ZM358 281.9L374.003 289.919C375.25 287.43 375.9 284.684 375.9 281.9H358ZM358 246.1L343.68 235.36C341.356 238.458 340.1 242.227 340.1 246.1H358ZM411.7 174.5L426.02 185.24C428.016 182.578 429.231 179.413 429.528 176.1C429.825 172.786 429.193 169.455 427.703 166.481L411.7 174.5ZM393.8 138.7V120.8C390.748 120.8 387.746 121.581 385.08 123.068C382.414 124.555 380.173 126.699 378.57 129.296C376.966 131.894 376.053 134.858 375.918 137.907C375.783 140.957 376.43 143.99 377.797 146.719L393.8 138.7ZM447.5 138.7V156.6C452.247 156.6 456.8 154.714 460.157 151.357C463.514 148 465.4 143.447 465.4 138.7H447.5ZM447.5 102.9V85C442.753 85 438.2 86.8859 434.843 90.2428C431.486 93.5997 429.6 98.1526 429.6 102.9H447.5ZM268.5 407.2C206.784 407.2 147.596 382.683 103.956 339.044C60.3165 295.404 35.8 236.216 35.8 174.5H0C0 245.711 28.2883 314.005 78.6418 364.358C128.995 414.712 197.289 443 268.5 443V407.2ZM501.2 174.5C501.2 205.059 495.181 235.318 483.487 263.55C471.792 291.783 454.652 317.436 433.044 339.044C411.436 360.652 385.783 377.792 357.55 389.487C329.318 401.181 299.059 407.2 268.5 407.2V443C339.711 443 408.005 414.712 458.358 364.358C508.712 314.005 537 245.711 537 174.5H501.2ZM268.5 -58.2C299.059 -58.2 329.318 -52.181 357.55 -40.4868C385.783 -28.7925 411.436 -11.6519 433.044 9.95625C454.652 31.5644 471.792 57.2171 483.487 85.4496C495.181 113.682 501.2 143.941 501.2 174.5H537C537 103.289 508.712 34.9953 458.358 -15.3582C408.005 -65.7117 339.711 -94 268.5 -94V-58.2ZM268.5 -94C197.289 -94 128.995 -65.7117 78.6418 -15.3582C28.2883 34.9953 0 103.289 0 174.5H35.8C35.8 112.784 60.3165 53.596 103.956 9.95625C147.596 -33.6835 206.784 -58.2 268.5 -58.2V-94ZM224.681 -60.0974L260.481 -42.1974L276.519 -74.2026L240.719 -92.1026L224.681 -60.0974ZM250.6 -58.2V-22.4H286.4V-58.2H250.6ZM260.481 -38.4026L224.681 -20.5026L240.719 11.5026L276.519 -6.3974L260.481 -38.4026ZM222.783 10.3928L276.483 46.1928L296.317 16.4072L242.617 -19.3928L222.783 10.3928ZM286.4 49.2H304.3V13.4H286.4V49.2ZM322.2 31.3V-4.5H286.4V31.3H322.2ZM304.3 13.4H358V-22.4H304.3V13.4ZM340.1 -4.5V31.3H375.9V-4.5H340.1ZM345.327 43.9732L363.227 61.8732L388.573 36.5268L370.673 18.6268L345.327 43.9732ZM358 49.2V85H393.8V49.2H358ZM363.227 72.3268L345.327 90.2268L370.673 115.573L388.573 97.6732L363.227 72.3268ZM358 85H322.2V120.8H358V85ZM330.219 86.8974L258.619 51.0974L242.581 83.1026L314.181 118.903L330.219 86.8974ZM242.581 51.0974L206.781 68.9974L222.819 101.003L258.619 83.1026L242.581 51.0974ZM214.8 67.1H161.1V102.9H214.8V67.1ZM143.737 80.6682L125.837 152.268L160.563 160.932L178.463 89.3318L143.737 80.6682ZM130.527 169.273L184.227 222.973L209.573 197.627L155.873 143.927L130.527 169.273ZM188.881 226.303L224.681 244.203L240.719 212.197L204.919 194.297L188.881 226.303ZM214.8 228.2V281.9H250.6V228.2H214.8ZM220.027 294.573L237.927 312.473L263.273 287.127L245.373 269.227L220.027 294.573ZM232.7 299.8V335.6H268.5V299.8H232.7ZM234.597 343.619L252.497 379.419L284.503 363.381L266.603 327.581L234.597 343.619ZM268.5 389.3H304.3V353.5H268.5V389.3ZM319.193 381.317L354.993 327.617L325.207 307.783L289.407 361.483L319.193 381.317ZM356.103 325.719L374.003 289.919L341.997 273.881L324.097 309.681L356.103 325.719ZM375.9 281.9V246.1H340.1V281.9H375.9ZM372.32 256.84L426.02 185.24L397.38 163.76L343.68 235.36L372.32 256.84ZM427.703 166.481L409.803 130.681L377.797 146.719L395.697 182.519L427.703 166.481ZM393.8 156.6H447.5V120.8H393.8V156.6ZM465.4 138.7V102.9H429.6V138.7H465.4ZM447.5 120.8H519.1V85H447.5V120.8Z" fill="#FF5964" fill-opacity="0.5"/>
</svg>
