<svg width="270" height="200" viewBox="0 0 270 200" fill="none" xmlns="http://www.w3.org/2000/svg">
<path d="M135 -52H144C144 -53.67 143.535 -55.3071 142.658 -56.728C141.78 -58.149 140.525 -59.2978 139.032 -60.046L135 -52ZM135 -34L139.032 -25.954C140.525 -26.7022 141.78 -27.851 142.658 -29.272C143.535 -30.6929 144 -32.33 144 -34H135ZM117 -25L112.968 -33.046C111.56 -32.3394 110.362 -31.2755 109.494 -29.9607C108.625 -28.6458 108.118 -27.1261 108.021 -25.5535C107.925 -23.9809 108.243 -22.4105 108.943 -20.9993C109.644 -19.5881 110.703 -18.3856 112.014 -17.512L117 -25ZM144 -7L139.014 0.487999C140.491 1.47257 142.225 1.99862 144 2V-7ZM153 -7V2C155.387 2 157.676 1.05179 159.364 -0.63604C161.052 -2.32387 162 -4.61305 162 -7H153ZM153 -25V-34C150.613 -34 148.324 -33.0518 146.636 -31.364C144.948 -29.6761 144 -27.3869 144 -25H153ZM180 -25H189C189 -27.3869 188.052 -29.6761 186.364 -31.364C184.676 -33.0518 182.387 -34 180 -34V-25ZM180 -7H171C170.998 -5.81731 171.229 -4.64581 171.68 -3.55245C172.131 -2.4591 172.793 -1.46534 173.628 -0.627998L180 -7ZM189 2H198C198.002 0.817314 197.771 -0.354195 197.32 -1.44755C196.869 -2.5409 196.207 -3.53466 195.372 -4.372L189 2ZM189 20L195.372 26.372C196.207 25.5347 196.869 24.5409 197.32 23.4476C197.771 22.3542 198.002 21.1827 198 20H189ZM180 29V38C181.183 38.0021 182.354 37.7711 183.448 37.3202C184.541 36.8692 185.535 36.2072 186.372 35.372L180 29ZM162 29L157.968 37.046C159.22 37.6732 160.6 37.9999 162 38V29ZM126 11L130.032 2.954C128.78 2.32685 127.4 2.0003 126 2.0003C124.6 2.0003 123.22 2.32685 121.968 2.954L126 11ZM108 20V29C109.4 28.9999 110.78 28.6732 112.032 28.046L108 20ZM81 20V11C78.9924 11.0006 77.0427 11.6723 75.4608 12.9084C73.879 14.1446 72.7558 15.8741 72.27 17.822L81 20ZM72 56L63.27 53.822C62.8913 55.3295 62.9094 56.9093 63.3227 58.4076C63.7359 59.906 64.5301 61.2718 65.628 62.372L72 56ZM99 83L92.628 89.372C93.3132 90.0519 94.1033 90.6171 94.968 91.046L99 83ZM117 92H126C126 90.33 125.535 88.6929 124.658 87.272C123.78 85.851 122.525 84.7022 121.032 83.954L117 92ZM117 119H108C107.998 120.183 108.229 121.354 108.68 122.448C109.131 123.541 109.793 124.535 110.628 125.372L117 119ZM126 128H135C135.002 126.817 134.771 125.646 134.32 124.552C133.869 123.459 133.207 122.465 132.372 121.628L126 128ZM126 146H117C117 147.4 117.327 148.78 117.954 150.032L126 146ZM135 164L126.954 168.032C127.702 169.525 128.851 170.78 130.272 171.658C131.693 172.535 133.33 173 135 173V164ZM153 164V173C154.482 172.999 155.941 172.632 157.247 171.932C158.554 171.232 159.667 170.22 160.488 168.986L153 164ZM171 137L178.488 141.986C178.693 141.68 178.88 141.361 179.046 141.032L171 137ZM180 119L188.046 123.032C188.673 121.78 189 120.4 189 119H180ZM180 101L172.8 95.6C171.632 97.1579 171 99.0527 171 101H180ZM207 65L214.2 70.4C215.204 69.0618 215.814 67.4703 215.964 65.8043C216.113 64.1382 215.795 62.4635 215.046 60.968L207 65ZM198 47V38C196.465 38.0001 194.956 38.3926 193.616 39.1403C192.275 39.888 191.149 40.966 190.342 42.2719C189.536 43.5778 189.077 45.0682 189.009 46.6015C188.941 48.1347 189.266 49.6599 189.954 51.032L198 47ZM225 47V56C227.387 56 229.676 55.0518 231.364 53.364C233.052 51.6761 234 49.3869 234 47H225ZM225 29V20C222.613 20 220.324 20.9482 218.636 22.636C216.948 24.3239 216 26.6131 216 29H225ZM135 182C103.97 182 74.2103 169.673 52.2685 147.731C30.3267 125.79 18 96.0303 18 65H0C0 100.804 14.2232 135.142 39.5406 160.459C64.858 185.777 99.1958 200 135 200V182ZM252 65C252 80.3647 248.974 95.5789 243.094 109.774C237.214 123.969 228.596 136.867 217.731 147.731C206.867 158.596 193.969 167.214 179.774 173.094C165.579 178.974 150.365 182 135 182V200C170.804 200 205.142 185.777 230.459 160.459C255.777 135.142 270 100.804 270 65H252ZM135 -52C150.365 -52 165.579 -48.9737 179.774 -43.0939C193.969 -37.2141 206.867 -28.5959 217.731 -17.7315C228.596 -6.86704 237.214 6.03094 243.094 20.226C248.974 34.4211 252 49.6353 252 65H270C270 29.1958 255.777 -5.14201 230.459 -30.4594C205.142 -55.7768 170.804 -70 135 -70V-52ZM135 -70C99.1958 -70 64.858 -55.7768 39.5406 -30.4594C14.2232 -5.14201 0 29.1958 0 65H18C18 33.9697 30.3267 4.21027 52.2685 -17.7315C74.2103 -39.6733 103.97 -52 135 -52V-70ZM112.968 -52.954L130.968 -43.954L139.032 -60.046L121.032 -69.046L112.968 -52.954ZM126 -52V-34H144V-52H126ZM130.968 -42.046L112.968 -33.046L121.032 -16.954L139.032 -25.954L130.968 -42.046ZM112.014 -17.512L139.014 0.487999L148.986 -14.488L121.986 -32.488L112.014 -17.512ZM144 2H153V-16H144V2ZM162 -7V-25H144V-7H162ZM153 -16H180V-34H153V-16ZM171 -25V-7H189V-25H171ZM173.628 -0.627998L182.628 8.372L195.372 -4.372L186.372 -13.372L173.628 -0.627998ZM180 2V20H198V2H180ZM182.628 13.628L173.628 22.628L186.372 35.372L195.372 26.372L182.628 13.628ZM180 20H162V38H180V20ZM166.032 20.954L130.032 2.954L121.968 19.046L157.968 37.046L166.032 20.954ZM121.968 2.954L103.968 11.954L112.032 28.046L130.032 19.046L121.968 2.954ZM108 11H81V29H108V11ZM72.27 17.822L63.27 53.822L80.73 58.178L89.73 22.178L72.27 17.822ZM65.628 62.372L92.628 89.372L105.372 76.628L78.372 49.628L65.628 62.372ZM94.968 91.046L112.968 100.046L121.032 83.954L103.032 74.954L94.968 91.046ZM108 92V119H126V92H108ZM110.628 125.372L119.628 134.372L132.372 121.628L123.372 112.628L110.628 125.372ZM117 128V146H135V128H117ZM117.954 150.032L126.954 168.032L143.046 159.968L134.046 141.968L117.954 150.032ZM135 173H153V155H135V173ZM160.488 168.986L178.488 141.986L163.512 132.014L145.512 159.014L160.488 168.986ZM179.046 141.032L188.046 123.032L171.954 114.968L162.954 132.968L179.046 141.032ZM189 119V101H171V119H189ZM187.2 106.4L214.2 70.4L199.8 59.6L172.8 95.6L187.2 106.4ZM215.046 60.968L206.046 42.968L189.954 51.032L198.954 69.032L215.046 60.968ZM198 56H225V38H198V56ZM234 47V29H216V47H234ZM225 38H261V20H225V38Z" fill="#1A5CCE" fill-opacity="0.2"/>
</svg>
